# AST/ASF file generated using VICON BodyLanguage
# -----------------------------------------------
:version 1.10
:name VICON
:units
  mass 1.0
  length 0.45
  angle deg
:documentation
   .ast/.asf automatically generated from VICON data using
   VICON BodyBuilder and BodyLanguage model FoxedUp or BRILLIANT.MOD
:root
   order TX TY TZ RX RY RZ
   axis XYZ
   position 0 0 0  
   orientation 0 0 0 
:bonedata
  begin
     id 1 
     name lhipjoint
     direction 0.54267 -0.795011 0.271047 
     length 2.39899 
     axis 0 0 0  XYZ
  end
  begin
     id 2 
     name lfemur
     direction 0.34202 -0.939693 0  
     length 7.49701  
     axis 0 0 20  XYZ
    dof rx ry rz
    limits (-160.0 20.0)
           (-70.0 70.0)
           (-60.0 70.0)
  end
  begin
     id 3 
     name ltibia
     direction 0.34202 -0.939693 0   
     length 8.1668   
     axis 0 0 20   XYZ
    dof rx
    limits (-10.0 170.0)
  end
  begin
     id 4 
     name lfoot
     direction 0.0736283 -0.202292 0.976554   
     length 2.13544   
     axis -90 7.62852e-016 20   XYZ
    dof rx rz
    limits (-45.0 90.0)
           (-70.0 20.0)
  end
  begin
     id 5 
     name ltoes
     direction 1.53557e-011 -4.22024e-011 1   
     length 1.07411   
     axis -90 7.62852e-016 20   XYZ
    dof rx
    limits (-90.0 20.0)
  end
  begin
     id 6 
     name rhipjoint
     direction -0.538061 -0.797813 0.272002   
     length 2.39057  
     axis 0 0 0  XYZ 
  end
  begin
     id 7 
     name rfemur
     direction -0.34202 -0.939693 0   
     length 7.50152   
     axis 0 0 -20   XYZ
    dof rx ry rz
    limits (-160.0 20.0)
           (-70.0 70.0)
           (-70.0 60.0)
  end
  begin
     id 8 
     name rtibia
     direction -0.34202 -0.939693 0   
     length 8.05793   
     axis 0 0 -20   XYZ
    dof rx
    limits (-10.0 170.0)
 end
 begin
     id 9 
     name rfoot
     direction -0.0765195 -0.210236 0.974652   
     length 2.28698  
     axis -90 -7.62852e-016 -20   XYZ
    dof rx rz
    limits (-45.0 90.0)
           (-20.0 70.0)
  end
  begin
     id 10 
     name rtoes
     direction -1.53542e-011 -4.21847e-011 1   
     length 1.14762   
     axis -90 -7.62852e-016 -20   XYZ
    dof rx
    limits (-90.0 20.0)
  end
  begin
     id 11 
     name lowerback
     direction -0.0217239 0.996592 -0.0795765   
     length 2.08176   
     axis 0 0 0   XYZ
    dof rx ry rz
    limits (-20.0 45.0)
           (-30.0 30.0)
           (-30.0 30.0)
  end
  begin
     id 12 
     name upperback
     direction -0.00563773 0.999651 -0.0258155   
     length 2.08898   
     axis 0 0 0   XYZ
    dof rx ry rz
    limits (-20.0 45.0)
           (-30.0 30.0)
           (-30.0 30.0)
  end
  begin
     id 13 
     name thorax
     direction 0.0032706 0.999923 0.0119599   
     length 2.0968   
     axis 0 0 0   XYZ
    dof rx ry rz
    limits (-20.0 45.0)
           (-30.0 30.0)
           (-30.0 30.0)
  end
  begin
     id 14 
     name lowerneck
     direction -0.0285886 0.99568 0.0883427   
     length 1.81272   
     axis 0 0 0   XYZ
    dof rx ry rz
    limits (-20.0 45.0)
           (-30.0 30.0)
           (-30.0 30.0)
  end
  begin
     id 15 
     name upperneck
     direction 0.0807535 0.97985 -0.18268   
     length 1.82518   
     axis 0 0 0   XYZ
    dof rx ry rz
    limits (-20.0 45.0)
           (-30.0 30.0)
           (-30.0 30.0)
  end
  begin
     id 16
     name head
     direction 0.0236605 0.997053 -0.0729767  
     length 1.84443  
     axis 0 0 0   XYZ
    dof rx ry rz
    limits (-20.0 45.0)
           (-30.0 30.0)
           (-30.0 30.0)
  end
  begin
     id 17 
     name lclavicle
     direction 0.918986 0.39378 -0.0200683  
     length 3.27822  
     axis 0 0 0   XYZ
    dof ry rz
    limits (-20.0 10.0)
           (0.0 20.0)
  end
  begin
     id 18 
     name lhumerus
     direction 1 -4.4897e-011 2.09544e-027   
     length 5.5568   
     axis 180 -30 -90   XYZ
    dof rx ry rz
    limits (-60.0 90.0)
           (-90.0 90.0)
           (-90.0 90.0)
  end
  begin
     id 19
     name lradius
     direction 1 -4.48957e-011 -1.27696e-026   
     length 3.63979   
     axis 180 -30 -90   XYZ
    dof rx
    limits (-10.0 170.0)
  end
  begin
     id 20
     name lwrist
     direction 1 -4.49001e-011 -1.49001e-026   
     length 1.8199   
     axis 9.0955e-015 90 90   XYZ
    dof ry
    limits (-180.0 0.0)
 end
  begin
     id 21 
     name lhand
     direction 1 -4.48709e-011 -2.9758e-026   
     length 0.569419   
     axis 1.90115e-014 90 90   XYZ
    dof rx rz
    limits (-90.0 90.0)
           (-45.0 45.0)
  end
  begin
     id 22 
     name lfingers
     direction 1 -4.49175e-011 -5.96505e-026   
     length 0.45908   
     axis 3.80223e-014 90 90   XYZ
    dof rx
    limits (0.0 90.0)
  end
  begin
     id 23
     name lthumb
     direction 0.707107 -6.34864e-011 0.707107   
     length 0.65915   
     axis -90 45 -3.84942e-014   XYZ
    dof rx rz
    limits (-45.0 45.0)
           (-45.0 45.0)
  end
  begin
     id 24 
     name rclavicle
     direction -0.911913 0.396426 -0.106115   
     length 3.46301  
     axis 0 0 0   XYZ 
    dof ry rz
    limits (-10.0 20.0)
           (-20.0 0.0)
  end
  begin
     id 25 
     name rhumerus
     direction -1 -4.48965e-011 7.78516e-028  
     length 5.34339   
     axis 180 30 90   XYZ
    dof rx ry rz
    limits (-90.0 60.0)
           (-90.0 90.0)
           (-90.0 90.0)
  end
  begin
     id 26 
     name rradius
     direction -1 -4.48948e-011 -5.79823e-027   
     length 3.65101   
     axis 180 30 90   XYZ
    dof rx
    limits (-10.0 170.0)
  end
  begin
     id 27 
     name rwrist
     direction -1 -4.48995e-011 -1.48996e-026   
     length 1.8255   
     axis 9.0955e-015 -90 -90   XYZ
    dof ry
    limits (-180.0 0.0)
  end
  begin
     id 28
     name rhand
     direction -1 -4.48957e-011 -2.97937e-026   
     length 0.694249   
     axis 1.90115e-014 -90 -90   XYZ
    dof rx rz
    limits (-90.0 90.0)
           (-45.0 45.0)
  end
  begin
     id 29
     name rfingers
     direction -1 -4.4898e-011 -5.95943e-026   
     length 0.559721   
     axis 3.80223e-014 -90 -90   XYZ
    dof rx
    limits (0.0 90.0)
  end
  begin
     id 30
     name rthumb
     direction -0.707107 -6.34969e-011 0.707107   
     length 0.803651   
     axis -90 -45 3.84942e-014   XYZ
    dof rx rz
    limits (-45.0 45.0)
           (-45.0 45.0)
  end
:hierarchy
  begin
    root lhipjoint rhipjoint lowerback
    lhipjoint lfemur
    lfemur ltibia
    ltibia lfoot
    lfoot ltoes
    rhipjoint rfemur
    rfemur rtibia
    rtibia rfoot
    rfoot rtoes
    lowerback upperback
    upperback thorax
    thorax lowerneck lclavicle rclavicle
    lowerneck upperneck
    upperneck head
    lclavicle lhumerus
    lhumerus lradius
    lradius lwrist
    lwrist lhand lthumb
    lhand lfingers
    rclavicle rhumerus
    rhumerus rradius
    rradius rwrist
    rwrist rhand rthumb
    rhand rfingers
  end

#!OML:ASF H:\Terrain\Walking\May29\JustinRory\rory.ASF
:FULLY-SPECIFIED
:DEGREES
452
root 11.5658 18.4789 -1.66776 -1.17941 -26.5494 7.93566
lowerback 3.55527 0.0827371 -6.60696
upperback 3.06032 -0.0634034 0.105416
thorax 1.17749 -0.152927 3.81627
lowerneck -8.25258 -4.98311 -5.18711
upperneck 9.58507 -6.39815 3.11279
head 4.48836 -3.16159 1.38223
rclavicle 2.28602e-015 -7.95139e-016
rhumerus -60.9754 -20.8231 -42.0099
rradius 60.7454
rwrist -21.4625
rhand -15.107 34.5627
rfingers 7.12502
rthumb 11.0616 4.87421
lclavicle 2.28602e-015 -7.95139e-016
lhumerus -58.2919 22.772 53.1152
lradius 66.1829
lwrist 36.5416
lhand -17.077 21.9148
lfingers 7.12502
lthumb 9.16104 51.6958
rfemur -25.3551 14.1783 4.54736
rtibia 26.7993
rfoot -5.74458 -11.9302
rtoes 0.351935
lfemur -11.6014 -2.56522 -27.6708
ltibia 25.4423
lfoot -10.9586 -7.14207
ltoes 3.33972
453
root 11.501 18.4834 -1.6131 -1.12201 -26.2133 7.60524
lowerback 3.40505 0.0124847 -6.36547
upperback 3.16805 -0.137063 0.1894
thorax 1.3799 -0.195515 3.76868
lowerneck -8.16413 -4.99381 -5.2001
upperneck 9.40004 -6.42819 3.26893
head 4.42364 -3.16869 1.43423
rclavicle 4.92986e-014 -1.11319e-014
rhumerus -60.6738 -20.6262 -43.3315
rradius 61.5573
rwrist -22.6589
rhand -16.1482 33.3517
rfingers 7.12502
rthumb 10.0571 3.61199
lclavicle 4.92986e-014 -1.11319e-014
lhumerus -57.7292 22.8066 54.3573
lradius 66.8116
lwrist 36.6095
lhand -18.0362 20.4606
lfingers 7.12502
lthumb 8.2354 50.2801
rfemur -25.2232 14.2463 4.83051
rtibia 26.5779
rfoot -4.45721 -10.61
rtoes 1.45775
lfemur -11.1819 -2.98381 -27.3026
ltibia 25.3595
lfoot -11.0268 -6.99718
ltoes 3.94499
454
root 11.4396 18.4746 -1.55472 -1.1147 -25.7528 7.25828
lowerback 3.24619 -0.0702138 -5.98261
upperback 3.30141 -0.224444 0.232444
thorax 1.61297 -0.242669 3.59875
lowerneck -8.22773 -5.00528 -5.13594
upperneck 9.45988 -6.45649 3.32734
head 4.45354 -3.17637 1.43772
rclavicle -1.03467e-013 1.66979e-014
rhumerus -60.2645 -20.7648 -44.3579
rradius 61.8745
rwrist -23.1113
rhand -16.3735 32.8435
rfingers 7.12502
rthumb 9.83984 3.09342
lclavicle -1.03467e-013 1.66979e-014
lhumerus -56.7992 22.5485 55.9372
lradius 67.3945
lwrist 37.099
lhand -18.3643 22.8687
lfingers 7.12502
lthumb 7.91874 52.7004
rfemur -24.9202 14.121 5.19211
rtibia 26.4495
rfoot -2.72185 -9.0725
rtoes 5.2136
lfemur -10.7494 -3.40514 -26.9186
ltibia 25.3646
lfoot -10.9609 -7.19802
ltoes 7.23017
455
root 11.3799 18.4678 -1.50041 -1.11478 -25.3689 7.05736
lowerback 3.0433 -0.0910204 -5.73797
upperback 3.43075 -0.230473 0.216693
thorax 1.85853 -0.250524 3.44378
lowerneck -8.33669 -5.06687 -4.94291
upperneck 9.504 -6.55427 3.28048
head 4.48128 -3.21889 1.38269
rclavicle -2.69353e-014 -1.74931e-014
rhumerus -59.7373 -21.179 -45.2742
rradius 61.8074
rwrist -22.9956
rhand -16.3868 33.3232
rfingers 7.12502
rthumb 9.82696 3.57254
lclavicle -2.69353e-014 -1.74931e-014
lhumerus -55.7265 22.2408 57.468
lradius 67.647
lwrist 36.5654
lhand -17.6385 24.3339
lfingers 7.12502
lthumb 8.61918 54.1379
rfemur -24.6783 13.97 5.44952
rtibia 26.5098
rfoot -1.2825 -7.73064
rtoes 8.5505
lfemur -10.3844 -3.61739 -26.6558
ltibia 25.3495
lfoot -11.2241 -7.41305
ltoes 7.60892
456
root 11.3181 18.4673 -1.45206 -1.14824 -25.1387 6.8507
lowerback 3.01153 -0.0753995 -5.56234
upperback 3.37948 -0.206012 0.238931
thorax 1.81885 -0.232252 3.36782
lowerneck -7.99217 -5.08417 -4.8002
upperneck 9.38249 -6.59994 3.19963
head 4.38117 -3.2449 1.34238
rclavicle 2.9122e-014 -1.59028e-015
rhumerus -59.4571 -21.051 -46.2961
rradius 62.0083
rwrist -22.8894
rhand -16.9559 33.1853
rfingers 7.12502
rthumb 9.2779 3.40945
lclavicle 2.9122e-014 -1.59028e-015
lhumerus -54.9631 21.686 58.9619
lradius 67.9217
lwrist 36.6006
lhand -18.8871 23.9513
lfingers 7.12502
lthumb 7.41413 53.8014
rfemur -24.4404 13.9416 5.77128
rtibia 26.7865
rfoot -0.929713 -7.275
rtoes 7.45752
lfemur -10.0216 -3.7593 -26.3579
ltibia 25.3391
lfoot -11.6351 -7.495
ltoes 6.84665
457
root 11.2525 18.4622 -1.39927 -1.41434 -24.817 6.8319
lowerback 3.26537 -0.0472688 -5.63375
upperback 3.17386 -0.191325 0.299554
thorax 1.46321 -0.212154 3.47197
lowerneck -7.62874 -5.18135 -4.82481
upperneck 9.70192 -6.7434 3.09881
head 4.42201 -3.32637 1.31114
rclavicle 2.80286e-014 1.59028e-014
rhumerus -59.4524 -20.5367 -47.1222
rradius 62.3194
rwrist -22.8357
rhand -17.5602 32.6427
rfingers 7.12502
rthumb 8.69473 2.84179
lclavicle 2.80286e-014 1.59028e-014
lhumerus -54.427 20.635 60.5581
lradius 68.3069
lwrist 37.2149
lhand -20.1861 23.9
lfingers 7.12502
lthumb 6.16012 53.7904
rfemur -23.9264 13.7178 5.98998
rtibia 27.2056
rfoot -1.01179 -7.52674
rtoes 6.81042
lfemur -9.45958 -3.68641 -26.2513
ltibia 25.3561
lfoot -11.8189 -7.89558
ltoes 8.01484
458
root 11.1865 18.4447 -1.34704 -1.71964 -24.3158 7.00587
lowerback 3.43135 -0.0296885 -5.86372
upperback 3.07135 -0.186045 0.306132
thorax 1.26594 -0.205576 3.6089
lowerneck -7.76078 -5.35296 -4.96384
upperneck 10.4599 -6.97104 3.08207
head 4.6905 -3.44328 1.29901
rclavicle -7.85199e-014 1.11319e-014
rhumerus -59.2115 -20.5611 -47.7531
rradius 62.2557
rwrist -22.4775
rhand -17.4739 33.4492
rfingers 7.12502
rthumb 8.77805 3.6517
lclavicle -7.85199e-014 1.11319e-014
lhumerus -53.609 19.7506 62.0475
lradius 68.5064
lwrist 36.6111
lhand -19.32 24.2342
lfingers 7.12502
lthumb 6.99623 54.0986
rfemur -23.3277 13.1739 6.07194
rtibia 27.6568
rfoot -1.54905 -7.64247
rtoes 4.07886
lfemur -8.94012 -3.46699 -26.336
ltibia 25.3546
lfoot -11.7844 -8.57183
ltoes 10.0619
459
root 11.1262 18.4239 -1.29983 -1.93353 -23.7767 7.18451
lowerback 3.31277 -0.0975113 -5.84546
upperback 3.13651 -0.264979 0.133682
thorax 1.40676 -0.248493 3.42096
lowerneck -7.91669 -5.4591 -5.09016
upperneck 10.9409 -7.12769 3.26758
head 4.88269 -3.51233 1.3541
rclavicle -5.12864e-014 -2.46493e-014
rhumerus -58.6637 -20.5974 -48.9078
rradius 62.4577
rwrist -22.3854
rhand -17.1772 34.605
rfingers 7.12502
rthumb 9.06437 4.81978
lclavicle -5.12864e-014 -2.46493e-014
lhumerus -52.5315 19.1836 63.3222
lradius 68.6957
lwrist 36.1232
lhand -18.9355 24.6452
lfingers 7.12502
lthumb 7.36739 54.497
rfemur -22.8103 12.5599 6.14332
rtibia 28.069
rfoot -2.64749 -6.923
rtoes -0.681547
lfemur -8.52201 -3.67158 -26.4509
ltibia 25.3415
lfoot -11.8796 -8.90086
ltoes 11.8852
460
root 11.0714 18.4103 -1.2496 -2.19078 -23.3168 7.29451
lowerback 3.26087 -0.158062 -5.67413
upperback 3.20171 -0.335173 -0.0843888
thorax 1.50658 -0.282257 3.09995
lowerneck -7.71183 -5.50037 -5.13755
upperneck 10.9832 -7.23616 3.64043
head 4.88146 -3.54768 1.47323
rclavicle -7.77248e-014 1.35174e-014
rhumerus -58.2566 -20.189 -50.3877
rradius 63.1365
rwrist -22.4234
rhand -17.7907 34.8941
rfingers 7.12502
rthumb 8.47231 5.08405
lclavicle -7.77248e-014 1.35174e-014
lhumerus -51.5616 18.4109 64.5764
lradius 69.009
lwrist 36.2615
lhand -19.8551 24.7332
lfingers 7.12502
lthumb 6.47966 54.6141
rfemur -22.2636 12.1162 6.25604
rtibia 28.3672
rfoot -3.35821 -5.87944
rtoes -1.10867
lfemur -8.02133 -4.12451 -26.5341
ltibia 25.3861
lfoot -11.9699 -8.88634
ltoes 13.5847
461
root 11.0124 18.4042 -1.19658 -2.38143 -22.9587 7.39711
lowerback 3.18273 -0.17898 -5.68538
upperback 3.19019 -0.357177 -0.206282
thorax 1.53963 -0.292666 2.98026
lowerneck -7.35253 -5.49934 -5.12623
upperneck 10.8552 -7.28723 3.94018
head 4.79466 -3.55985 1.57126
rclavicle -4.78077e-014 1.74931e-014
rhumerus -57.7154 -19.9279 -51.6522
rradius 63.2971
rwrist -21.8753
rhand -18.9612 35.2022
rfingers 7.12502
rthumb 7.34263 5.34959
lclavicle -4.78077e-014 1.74931e-014
lhumerus -50.6833 17.617 65.7711
lradius 69.24
lwrist 35.7578
lhand -20.2492 23.8795
lfingers 7.12502
lthumb 6.09921 53.7717
rfemur -21.7772 11.8903 6.36209
rtibia 28.4969
rfoot -3.57905 -5.89061
rtoes -0.0310332
lfemur -7.68789 -4.15335 -26.5899
ltibia 25.5578
lfoot -12.0883 -8.94246
ltoes 12.5419
462
root 10.9477 18.4056 -1.14467 -2.42871 -22.6291 7.40973
lowerback 2.88618 -0.194814 -5.67334
upperback 3.20566 -0.356391 -0.289747
thorax 1.72093 -0.29613 2.88541
lowerneck -7.24761 -5.59939 -5.13654
upperneck 10.9017 -7.44698 4.09091
head 4.80489 -3.6312 1.60988
rclavicle -1.13307e-014 1.11319e-014
rhumerus -56.9892 -19.8319 -52.789
rradius 63.244
rwrist -21.5701
rhand -19.5576 35.6256
rfingers 7.12502
rthumb 6.76685 5.75372
lclavicle -1.13307e-014 1.11319e-014
lhumerus -49.7338 16.8635 66.8736
lradius 69.505
lwrist 34.7955
lhand -19.662 24.0747
lfingers 7.12502
lthumb 6.66614 53.9498
rfemur -21.3733 11.7461 6.57626
rtibia 28.5268
rfoot -3.85558 -6.70586
rtoes 0.81439
lfemur -7.52902 -3.93572 -26.5285
ltibia 25.8442
lfoot -12.25 -8.9665
ltoes 9.95168
463
root 10.8879 18.4077 -1.10081 -2.31964 -22.3148 7.12183
lowerback 2.5846 -0.216912 -5.26821
upperback 3.22947 -0.35884 -0.335422
thorax 1.90932 -0.293452 2.60941
lowerneck -7.19129 -5.72174 -5.20993
upperneck 10.9857 -7.63243 4.27199
head 4.84002 -3.71502 1.66403
rclavicle 6.26172e-015 2.46493e-014
rhumerus -56.0137 -19.8996 -53.8128
rradius 63.0602
rwrist -21.6439
rhand -19.4869 35.5289
rfingers 7.12502
rthumb 6.83512 5.65923
lclavicle 6.26172e-015 2.46493e-014
lhumerus -48.7488 15.996 68.0052
lradius 69.748
lwrist 34.1663
lhand -19.0326 24.9913
lfingers 7.12502
lthumb 7.27366 54.8463
rfemur -21.0752 11.6096 7.10214
rtibia 28.5545
rfoot -4.17229 -7.2975
rtoes 1.7127
lfemur -7.50778 -3.79409 -26.1392
ltibia 26.2415
lfoot -12.2239 -9.00145
ltoes 9.73577
464
root 10.8326 18.399 -1.06805 -2.15328 -22.0836 6.7539
lowerback 2.36492 -0.23364 -4.75745
upperback 3.22719 -0.361872 -0.353564
thorax 2.02395 -0.286074 2.30339
lowerneck -7.14246 -5.69912 -5.10338
upperneck 11.0029 -7.61409 4.24437
head 4.83097 -3.70411 1.64129
rclavicle 6.88789e-014 -2.10712e-014
rhumerus -54.7469 -20.0165 -54.7985
rradius 62.5683
rwrist -21.3384
rhand -19.1544 35.0679
rfingers 7.12502
rthumb 7.15611 5.20887
lclavicle 6.88789e-014 -2.10712e-014
lhumerus -47.6868 15.0796 69.1523
lradius 69.8528
lwrist 33.9786
lhand -19.3376 24.8391
lfingers 7.12502
lthumb 6.97924 54.7041
rfemur -20.8619 11.5441 7.70293
rtibia 28.647
rfoot -4.43393 -7.7006
rtoes 0.808814
lfemur -7.64012 -3.5445 -25.6519
ltibia 26.7371
lfoot -12.099 -9.24887
ltoes 10.9018
465
root 10.7769 18.3913 -1.0328 -2.05215 -21.7435 6.38079
lowerback 2.19489 -0.261881 -4.26612
upperback 3.21851 -0.386179 -0.335235
thorax 2.10634 -0.288906 2.04624
lowerneck -7.41678 -5.67797 -4.95034
upperneck 11.4156 -7.57669 4.00302
head 4.98733 -3.68837 1.5328
rclavicle -2.31584e-014 4.77083e-015
rhumerus -53.7779 -19.7342 -55.7923
rradius 62.2961
rwrist -20.7569
rhand -18.9453 35.0671
rfingers 7.12502
rthumb 7.35791 5.21506
lclavicle -2.31584e-014 4.77083e-015
lhumerus -46.6504 14.1427 70.2723
lradius 69.9955
lwrist 33.8019
lhand -19.8527 24.5037
lfingers 7.12502
lthumb 6.48206 54.3845
rfemur -20.5152 11.4802 8.2976
rtibia 28.7877
rfoot -4.72017 -8.16624
rtoes 0.139593
lfemur -7.70774 -3.19106 -25.18
ltibia 27.3241
lfoot -11.993 -9.5373
ltoes 11.0098
